<svg xmlns="http://www.w3.org/2000/svg" width="512" height="512" viewBox="0 0 512 512">
<g shape-rendering="crispEdges"><rect x="146" y="14" width="44" height="44" fill="#ff8700"/>
<rect x="190" y="14" width="44" height="44" fill="#ff8700"/>
<rect x="234" y="14" width="44" height="44" fill="#ff8700"/>
<rect x="278" y="14" width="44" height="44" fill="#ff8700"/>
<rect x="322" y="14" width="44" height="44" fill="#ff8700"/>
<rect x="102" y="58" width="44" height="44" fill="#ff8700"/>
<rect x="146" y="58" width="44" height="44" fill="#ff8700"/>
<rect x="190" y="58" width="44" height="44" fill="#ff8700"/>
<rect x="234" y="58" width="44" height="44" fill="#ff8700"/>
<rect x="278" y="58" width="44" height="44" fill="#ff8700"/>
<rect x="322" y="58" width="44" height="44" fill="#ff8700"/>
<rect x="366" y="58" width="44" height="44" fill="#ff8700"/>
<rect x="58" y="102" width="44" height="44" fill="#ff8700"/>
<rect x="102" y="102" width="44" height="44" fill="#ff8700"/>
<rect x="146" y="102" width="44" height="44" fill="#2d3c50"/>
<rect x="190" y="102" width="44" height="44" fill="#2d3c50"/>
<rect x="234" y="102" width="44" height="44" fill="#ff8700"/>
<rect x="278" y="102" width="44" height="44" fill="#ff8700"/>
<rect x="322" y="102" width="44" height="44" fill="#ff8700"/>
<rect x="366" y="102" width="44" height="44" fill="#ff8700"/>
<rect x="410" y="102" width="44" height="44" fill="#ff8700"/>
<rect x="58" y="146" width="44" height="44" fill="#ff8700"/>
<rect x="102" y="146" width="44" height="44" fill="#ff8700"/>
<rect x="146" y="146" width="44" height="44" fill="#ff8700"/>
<rect x="190" y="146" width="44" height="44" fill="#2d3c50"/>
<rect x="234" y="146" width="44" height="44" fill="#2d3c50"/>
<rect x="278" y="146" width="44" height="44" fill="#ff8700"/>
<rect x="322" y="146" width="44" height="44" fill="#ff8700"/>
<rect x="366" y="146" width="44" height="44" fill="#ff8700"/>
<rect x="410" y="146" width="44" height="44" fill="#ff8700"/>
<rect x="14" y="190" width="44" height="44" fill="#ff8700"/>
<rect x="58" y="190" width="44" height="44" fill="#ff8700"/>
<rect x="102" y="190" width="44" height="44" fill="#ff8700"/>
<rect x="146" y="190" width="44" height="44" fill="#ff8700"/>
<rect x="190" y="190" width="44" height="44" fill="#ff8700"/>
<rect x="234" y="190" width="44" height="44" fill="#2d3c50"/>
<rect x="278" y="190" width="44" height="44" fill="#2d3c50"/>
<rect x="322" y="190" width="44" height="44" fill="#ff8700"/>
<rect x="366" y="190" width="44" height="44" fill="#ff8700"/>
<rect x="410" y="190" width="44" height="44" fill="#ff8700"/>
<rect x="454" y="190" width="44" height="44" fill="#ff8700"/>
<rect x="14" y="234" width="44" height="44" fill="#ff8700"/>
<rect x="58" y="234" width="44" height="44" fill="#ff8700"/>
<rect x="102" y="234" width="44" height="44" fill="#ff8700"/>
<rect x="146" y="234" width="44" height="44" fill="#ff8700"/>
<rect x="190" y="234" width="44" height="44" fill="#ff8700"/>
<rect x="234" y="234" width="44" height="44" fill="#2d3c50"/>
<rect x="278" y="234" width="44" height="44" fill="#2d3c50"/>
<rect x="322" y="234" width="44" height="44" fill="#ff8700"/>
<rect x="366" y="234" width="44" height="44" fill="#ff8700"/>
<rect x="410" y="234" width="44" height="44" fill="#ff8700"/>
<rect x="454" y="234" width="44" height="44" fill="#ff8700"/>
<rect x="14" y="278" width="44" height="44" fill="#ff8700"/>
<rect x="58" y="278" width="44" height="44" fill="#ff8700"/>
<rect x="102" y="278" width="44" height="44" fill="#ff8700"/>
<rect x="146" y="278" width="44" height="44" fill="#ff8700"/>
<rect x="190" y="278" width="44" height="44" fill="#2d3c50"/>
<rect x="234" y="278" width="44" height="44" fill="#2d3c50"/>
<rect x="278" y="278" width="44" height="44" fill="#ff8700"/>
<rect x="322" y="278" width="44" height="44" fill="#ff8700"/>
<rect x="366" y="278" width="44" height="44" fill="#ff8700"/>
<rect x="410" y="278" width="44" height="44" fill="#ff8700"/>
<rect x="454" y="278" width="44" height="44" fill="#ff8700"/>
<rect x="58" y="322" width="44" height="44" fill="#ff8700"/>
<rect x="102" y="322" width="44" height="44" fill="#ff8700"/>
<rect x="146" y="322" width="44" height="44" fill="#2d3c50"/>
<rect x="190" y="322" width="44" height="44" fill="#2d3c50"/>
<rect x="234" y="322" width="44" height="44" fill="#ff8700"/>
<rect x="278" y="322" width="44" height="44" fill="#ff8700"/>
<rect x="322" y="322" width="44" height="44" fill="#ff8700"/>
<rect x="366" y="322" width="44" height="44" fill="#ff8700"/>
<rect x="410" y="322" width="44" height="44" fill="#ff8700"/>
<rect x="58" y="366" width="44" height="44" fill="#ff8700"/>
<rect x="102" y="366" width="44" height="44" fill="#ff8700"/>
<rect x="146" y="366" width="44" height="44" fill="#ff8700"/>
<rect x="190" y="366" width="44" height="44" fill="#ff8700"/>
<rect x="234" y="366" width="44" height="44" fill="#ff8700"/>
<rect x="278" y="366" width="44" height="44" fill="#ff8700"/>
<rect x="322" y="366" width="44" height="44" fill="#ff8700"/>
<rect x="366" y="366" width="44" height="44" fill="#ff8700"/>
<rect x="410" y="366" width="44" height="44" fill="#ff8700"/>
<rect x="102" y="410" width="44" height="44" fill="#ff8700"/>
<rect x="146" y="410" width="44" height="44" fill="#2d3c50"/>
<rect x="190" y="410" width="44" height="44" fill="#2d3c50"/>
<rect x="234" y="410" width="44" height="44" fill="#2d3c50"/>
<rect x="278" y="410" width="44" height="44" fill="#2d3c50"/>
<rect x="322" y="410" width="44" height="44" fill="#ff8700"/>
<rect x="366" y="410" width="44" height="44" fill="#ff8700"/>
<rect x="146" y="454" width="44" height="44" fill="#ff8700"/>
<rect x="190" y="454" width="44" height="44" fill="#ff8700"/>
<rect x="234" y="454" width="44" height="44" fill="#ff8700"/>
<rect x="278" y="454" width="44" height="44" fill="#ff8700"/>
<rect x="322" y="454" width="44" height="44" fill="#ff8700"/></g>
</svg>