<svg xmlns="http://www.w3.org/2000/svg" width="1280" height="640" viewBox="0 0 1280 640">
<rect width="1280" height="640" fill="#10182b"/>
<g shape-rendering="crispEdges"><rect x="200" y="155" width="30" height="30" fill="#ff8700"/>
<rect x="230" y="155" width="30" height="30" fill="#ff8700"/>
<rect x="260" y="155" width="30" height="30" fill="#ff8700"/>
<rect x="290" y="155" width="30" height="30" fill="#ff8700"/>
<rect x="320" y="155" width="30" height="30" fill="#ff8700"/>
<rect x="170" y="185" width="30" height="30" fill="#ff8700"/>
<rect x="200" y="185" width="30" height="30" fill="#ff8700"/>
<rect x="230" y="185" width="30" height="30" fill="#ff8700"/>
<rect x="260" y="185" width="30" height="30" fill="#ff8700"/>
<rect x="290" y="185" width="30" height="30" fill="#ff8700"/>
<rect x="320" y="185" width="30" height="30" fill="#ff8700"/>
<rect x="350" y="185" width="30" height="30" fill="#ff8700"/>
<rect x="140" y="215" width="30" height="30" fill="#ff8700"/>
<rect x="170" y="215" width="30" height="30" fill="#ff8700"/>
<rect x="200" y="215" width="30" height="30" fill="#2d3c50"/>
<rect x="230" y="215" width="30" height="30" fill="#2d3c50"/>
<rect x="260" y="215" width="30" height="30" fill="#ff8700"/>
<rect x="290" y="215" width="30" height="30" fill="#ff8700"/>
<rect x="320" y="215" width="30" height="30" fill="#ff8700"/>
<rect x="350" y="215" width="30" height="30" fill="#ff8700"/>
<rect x="380" y="215" width="30" height="30" fill="#ff8700"/>
<rect x="140" y="245" width="30" height="30" fill="#ff8700"/>
<rect x="170" y="245" width="30" height="30" fill="#ff8700"/>
<rect x="200" y="245" width="30" height="30" fill="#ff8700"/>
<rect x="230" y="245" width="30" height="30" fill="#2d3c50"/>
<rect x="260" y="245" width="30" height="30" fill="#2d3c50"/>
<rect x="290" y="245" width="30" height="30" fill="#ff8700"/>
<rect x="320" y="245" width="30" height="30" fill="#ff8700"/>
<rect x="350" y="245" width="30" height="30" fill="#ff8700"/>
<rect x="380" y="245" width="30" height="30" fill="#ff8700"/>
<rect x="110" y="275" width="30" height="30" fill="#ff8700"/>
<rect x="140" y="275" width="30" height="30" fill="#ff8700"/>
<rect x="170" y="275" width="30" height="30" fill="#ff8700"/>
<rect x="200" y="275" width="30" height="30" fill="#ff8700"/>
<rect x="230" y="275" width="30" height="30" fill="#ff8700"/>
<rect x="260" y="275" width="30" height="30" fill="#2d3c50"/>
<rect x="290" y="275" width="30" height="30" fill="#2d3c50"/>
<rect x="320" y="275" width="30" height="30" fill="#ff8700"/>
<rect x="350" y="275" width="30" height="30" fill="#ff8700"/>
<rect x="380" y="275" width="30" height="30" fill="#ff8700"/>
<rect x="410" y="275" width="30" height="30" fill="#ff8700"/>
<rect x="110" y="305" width="30" height="30" fill="#ff8700"/>
<rect x="140" y="305" width="30" height="30" fill="#ff8700"/>
<rect x="170" y="305" width="30" height="30" fill="#ff8700"/>
<rect x="200" y="305" width="30" height="30" fill="#ff8700"/>
<rect x="230" y="305" width="30" height="30" fill="#ff8700"/>
<rect x="260" y="305" width="30" height="30" fill="#2d3c50"/>
<rect x="290" y="305" width="30" height="30" fill="#2d3c50"/>
<rect x="320" y="305" width="30" height="30" fill="#ff8700"/>
<rect x="350" y="305" width="30" height="30" fill="#ff8700"/>
<rect x="380" y="305" width="30" height="30" fill="#ff8700"/>
<rect x="410" y="305" width="30" height="30" fill="#ff8700"/>
<rect x="110" y="335" width="30" height="30" fill="#ff8700"/>
<rect x="140" y="335" width="30" height="30" fill="#ff8700"/>
<rect x="170" y="335" width="30" height="30" fill="#ff8700"/>
<rect x="200" y="335" width="30" height="30" fill="#ff8700"/>
<rect x="230" y="335" width="30" height="30" fill="#2d3c50"/>
<rect x="260" y="335" width="30" height="30" fill="#2d3c50"/>
<rect x="290" y="335" width="30" height="30" fill="#ff8700"/>
<rect x="320" y="335" width="30" height="30" fill="#ff8700"/>
<rect x="350" y="335" width="30" height="30" fill="#ff8700"/>
<rect x="380" y="335" width="30" height="30" fill="#ff8700"/>
<rect x="410" y="335" width="30" height="30" fill="#ff8700"/>
<rect x="140" y="365" width="30" height="30" fill="#ff8700"/>
<rect x="170" y="365" width="30" height="30" fill="#ff8700"/>
<rect x="200" y="365" width="30" height="30" fill="#2d3c50"/>
<rect x="230" y="365" width="30" height="30" fill="#2d3c50"/>
<rect x="260" y="365" width="30" height="30" fill="#ff8700"/>
<rect x="290" y="365" width="30" height="30" fill="#ff8700"/>
<rect x="320" y="365" width="30" height="30" fill="#ff8700"/>
<rect x="350" y="365" width="30" height="30" fill="#ff8700"/>
<rect x="380" y="365" width="30" height="30" fill="#ff8700"/>
<rect x="140" y="395" width="30" height="30" fill="#ff8700"/>
<rect x="170" y="395" width="30" height="30" fill="#ff8700"/>
<rect x="200" y="395" width="30" height="30" fill="#ff8700"/>
<rect x="230" y="395" width="30" height="30" fill="#ff8700"/>
<rect x="260" y="395" width="30" height="30" fill="#ff8700"/>
<rect x="290" y="395" width="30" height="30" fill="#ff8700"/>
<rect x="320" y="395" width="30" height="30" fill="#ff8700"/>
<rect x="350" y="395" width="30" height="30" fill="#ff8700"/>
<rect x="380" y="395" width="30" height="30" fill="#ff8700"/>
<rect x="170" y="425" width="30" height="30" fill="#ff8700"/>
<rect x="200" y="425" width="30" height="30" fill="#2d3c50"/>
<rect x="230" y="425" width="30" height="30" fill="#2d3c50"/>
<rect x="260" y="425" width="30" height="30" fill="#2d3c50"/>
<rect x="290" y="425" width="30" height="30" fill="#2d3c50"/>
<rect x="320" y="425" width="30" height="30" fill="#ff8700"/>
<rect x="350" y="425" width="30" height="30" fill="#ff8700"/>
<rect x="200" y="455" width="30" height="30" fill="#ff8700"/>
<rect x="230" y="455" width="30" height="30" fill="#ff8700"/>
<rect x="260" y="455" width="30" height="30" fill="#ff8700"/>
<rect x="290" y="455" width="30" height="30" fill="#ff8700"/>
<rect x="320" y="455" width="30" height="30" fill="#ff8700"/></g>
<text x="490" y="290" font-family="ui-monospace, SFMono-Regular, Menlo, Consolas, monospace" font-size="72" font-weight="bold" fill="#ff8700">marktplaats-mcp</text>
<text x="490" y="345" font-family="ui-monospace, SFMono-Regular, Menlo, Consolas, monospace" font-size="27" fill="#aab4c4" font-style="italic">your AI agent, loose on the classifieds</text>
<text x="490" y="400" font-family="ui-monospace, SFMono-Regular, Menlo, Consolas, monospace" font-size="21" fill="#8a94a6">marktplaats.nl &#183; 2dehands.be &#183; 5 tools &#183; no API key</text>
<text x="490" y="448" font-family="ui-monospace, SFMono-Regular, Menlo, Consolas, monospace" font-size="21" fill="#5f6b7d">uvx marktplaats-mcp</text>
</svg>